<?xml version="1.0" encoding="UTF-8" standalone="no"?>
<!-- Created with Inkscape (http://www.inkscape.org/) -->

<svg
   width="43.349331mm"
   height="43.349331mm"
   viewBox="0 0 43.349331 43.349331"
   version="1.1"
   id="svg1"
   xml:space="preserve"
   xmlns:inkscape="http://www.inkscape.org/namespaces/inkscape"
   xmlns:sodipodi="http://sodipodi.sourceforge.net/DTD/sodipodi-0.dtd"
   xmlns="http://www.w3.org/2000/svg"
   xmlns:svg="http://www.w3.org/2000/svg"><sodipodi:namedview
     id="namedview1"
     pagecolor="#000000"
     bordercolor="#000000"
     borderopacity="0.25"
     inkscape:showpageshadow="2"
     inkscape:pageopacity="0.0"
     inkscape:pagecheckerboard="0"
     inkscape:deskcolor="#d1d1d1"
     inkscape:document-units="mm"><inkscape:page
       x="0"
       y="0"
       width="43.349331"
       height="43.349331"
       id="page2"
       margin="0"
       bleed="0" /></sodipodi:namedview><defs
     id="defs1" /><g
     inkscape:label="Réteg 1"
     inkscape:groupmode="layer"
     id="layer1"
     transform="translate(-83.100334,-126.75658)"><path
       style="fill:#ffffff"
       d="m 115.10433,156.68494 c 0,-0.0798 1.03128,-2.10488 1.42218,-2.7927 0.83339,-1.46642 2.34509,-3.60132 2.84005,-4.01087 0.0772,-0.0639 0.14044,-0.14963 0.14044,-0.1905 0,-0.0424 -7.81749,-0.0743 -18.20333,-0.0743 H 83.100334 v -1.18514 -1.18514 l 18.203986,-0.0214 18.20398,-0.0214 -0.77263,-1.016 c -0.96524,-1.26927 -1.61663,-2.23686 -2.16597,-3.21734 -0.43994,-0.7852 -1.3807,-2.6303 -1.3807,-2.70792 0,-0.0241 0.39669,-0.0437 0.88154,-0.0437 h 0.88155 l 1.97595,1.97308 c 2.66905,2.66516 4.51978,4.11241 6.6739,5.2189 l 0.84773,0.43545 -10e-4,0.52545 -0.001,0.52545 -0.69731,0.37266 c -1.63031,0.87126 -3.26438,2.01725 -4.65282,3.26306 -0.76414,0.68564 -2.93156,2.85483 -3.74839,3.75144 l -0.40494,0.4445 h -0.91975 c -0.50586,0 -0.91975,-0.0196 -0.91975,-0.0436 z"
       id="path1" /></g></svg>
