<?xml version="1.0" encoding="UTF-8" standalone="no"?>
<!-- Created with Inkscape (http://www.inkscape.org/) -->

<svg
   width="43.349331mm"
   height="43.349331mm"
   viewBox="0 0 43.349331 43.349331"
   version="1.1"
   id="svg1"
   xml:space="preserve"
   xmlns:inkscape="http://www.inkscape.org/namespaces/inkscape"
   xmlns:sodipodi="http://sodipodi.sourceforge.net/DTD/sodipodi-0.dtd"
   xmlns="http://www.w3.org/2000/svg"
   xmlns:svg="http://www.w3.org/2000/svg"><sodipodi:namedview
     id="namedview1"
     pagecolor="#000000"
     bordercolor="#000000"
     borderopacity="0.25"
     inkscape:showpageshadow="2"
     inkscape:pageopacity="0.0"
     inkscape:pagecheckerboard="0"
     inkscape:deskcolor="#d1d1d1"
     inkscape:document-units="mm"><inkscape:page
       x="0"
       y="0"
       width="43.349331"
       height="43.349331"
       id="page2"
       margin="0"
       bleed="0" /></sodipodi:namedview><defs
     id="defs1" /><g
     inkscape:label="Icon"
     inkscape:groupmode="layer"
     id="layer1"
     transform="translate(-86.830627,-62.170418)"><path
       style="fill:#ffffff"
       d="m 113.75463,92.098781 c 0,-0.07978 1.03127,-2.104876 1.42217,-2.792698 0.83339,-1.466422 2.34509,-3.601318 2.84006,-4.010867 0.0772,-0.06391 0.14043,-0.149635 0.14043,-0.1905 0,-0.0423 -5.65161,-0.0743 -13.12333,-0.0743 H 91.910627 v -1.185068 -1.185067 l 13.123983,-0.02143 13.12399,-0.02143 -0.77264,-1.016 c -0.96523,-1.269267 -1.61663,-2.236852 -2.16597,-3.217333 -0.43993,-0.785203 -1.3807,-2.6303 -1.3807,-2.707923 0,-0.02406 0.3967,-0.04374 0.88155,-0.04374 h 0.88154 l 1.97596,1.973081 c 2.66904,2.665164 4.51977,4.112409 6.67389,5.218906 l 0.84773,0.435448 -10e-4,0.525449 -0.001,0.525449 -0.69731,0.372657 c -1.63031,0.871268 -3.26438,2.017255 -4.65282,3.26306 -0.76414,0.685641 -2.93156,2.854831 -3.74839,3.751449 l -0.40494,0.4445 h -0.91975 c -0.50586,0 -0.91974,-0.01964 -0.91974,-0.04363 z"
       id="path1" /></g></svg>
