<?xml version="1.0" encoding="UTF-8" standalone="no"?>
<!-- Created with Inkscape (http://www.inkscape.org/) -->

<svg
   width="43.349331mm"
   height="43.349331mm"
   viewBox="0 0 43.349331 43.349331"
   version="1.1"
   id="svg1"
   xml:space="preserve"
   xmlns:inkscape="http://www.inkscape.org/namespaces/inkscape"
   xmlns:sodipodi="http://sodipodi.sourceforge.net/DTD/sodipodi-0.dtd"
   xmlns="http://www.w3.org/2000/svg"
   xmlns:svg="http://www.w3.org/2000/svg"><sodipodi:namedview
     id="namedview1"
     pagecolor="#000000"
     bordercolor="#000000"
     borderopacity="0.25"
     inkscape:showpageshadow="2"
     inkscape:pageopacity="0.0"
     inkscape:pagecheckerboard="0"
     inkscape:deskcolor="#d1d1d1"
     inkscape:document-units="mm"><inkscape:page
       x="0"
       y="0"
       width="43.349331"
       height="43.349331"
       id="page2"
       margin="0"
       bleed="0" /></sodipodi:namedview><defs
     id="defs1" /><g
     inkscape:label="Icon"
     inkscape:groupmode="layer"
     id="layer1"
     transform="translate(-62.727417,-111.14617)"><path
       style="fill:#ffffff"
       d="m 94.985415,140.49023 v -3.26673 h -9.101666 -9.101666 v -4.48733 -4.48733 h 9.101666 9.101666 v -3.13972 c 0,-1.72685 0.03268,-3.12703 0.07262,-3.1115 0.18464,0.0718 11.020005,10.79315 10.999575,10.88388 -0.0232,0.10294 -10.865287,10.79386 -11.000621,10.84723 -0.03937,0.0155 -0.07157,-1.44181 -0.07157,-3.2385 z m -32.173331,-7.75406 v -4.48733 h 0.804333 0.804333 v 4.48733 4.48733 h -0.804333 -0.804333 z m 4.487333,0 v -4.48733 h 1.439333 1.439333 v 4.48733 4.48733 H 68.73875 67.299417 Z m 4.402666,0 v -4.48733 h 1.989667 1.989666 v 4.48733 4.48733 H 73.69175 71.702083 Z"
       id="path1" /></g></svg>
